<svg xmlns="http://www.w3.org/2000/svg" viewBox="0 0 64 64" role="img" aria-label="SL">
  <defs>
    <linearGradient id="bg" x1="12" y1="8" x2="54" y2="58" gradientUnits="userSpaceOnUse">
      <stop offset="0" stop-color="#26262a"/>
      <stop offset="1" stop-color="#0b0b0d"/>
    </linearGradient>
    <linearGradient id="shine" x1="18" y1="12" x2="48" y2="50" gradientUnits="userSpaceOnUse">
      <stop offset="0" stop-color="#ffffff"/>
      <stop offset="1" stop-color="#d8d8df"/>
    </linearGradient>
  </defs>
  <rect x="4" y="4" width="56" height="56" rx="17" fill="url(#bg)"/>
  <path d="M19.5 41.6c2.2 1.8 5.1 2.8 8.3 2.8 4.4 0 7.1-1.9 7.1-5 0-2.7-1.6-4.2-5.8-5.2l-3.1-.7c-5-1.2-7.5-3.7-7.5-7.6 0-4.8 4-7.9 10.1-7.9 3.9 0 7.1 1 9.6 3.1l-2.8 4.2c-1.9-1.6-4.1-2.4-6.8-2.4-3 0-4.8 1.2-4.8 3.2 0 1.8 1.4 2.8 5.1 3.7l3.1.7c5.6 1.3 8.2 3.9 8.2 8.2 0 5-4.2 8.5-11.1 8.5-4.5 0-8.5-1.3-11.4-3.8l2.7-4.1Z" fill="url(#shine)"/>
  <path d="M42.4 18.8h5.2v23.8h10.2v4.6H42.4V18.8Z" fill="url(#shine)"/>
</svg>
